PathFileType	4	(X/Y/Z)	../Python\walking\Walking05\task.trc
DataRate	CameraRate	NumFrames	NumMarkers	Units	OrigDataRate	OrigDataStartFrame	OrigNumFrames
200.000000	200.000000	7	30	mm	200.000000	226	605
Frame#	Time	C7			RBAK			CLAV			STRN			T10			RASI			RPSI			LPSI			LASI			PE01			PE02			PE03			RTH1			RTH2			RTH3			RTB1			RTB2			RTB3			RHEE			RD5M			RTOE			LTH1			LTH2			LTH3			LTB1			LTB2			LTB3			LHEE			LTOE			LD5M			
		X1	Y1	Z1	X2	Y2	Z2	X3	Y3	Z3	X4	Y4	Z4	X5	Y5	Z5	X6	Y6	Z6	X7	Y7	Z7	X8	Y8	Z8	X9	Y9	Z9	X10	Y10	Z10	X11	Y11	Z11	X12	Y12	Z12	X13	Y13	Z13	X14	Y14	Z14	X15	Y15	Z15	X16	Y16	Z16	X17	Y17	Z17	X18	Y18	Z18	X19	Y19	Z19	X20	Y20	Z20	X21	Y21	Z21	X22	Y22	Z22	X23	Y23	Z23	X24	Y24	Z24	X25	Y25	Z25	X26	Y26	Z26	X27	Y27	Z27	X28	Y28	Z28	X29	Y29	Z29	X30	Y30	Z30	

227	1.13	338.4996032714845	1497.535400390625	162.1330261230469	306.308563232422	1416.176879882813	331.7165832519532	448.8273010253909	1402.827514648438	178.411117553711	493.5612792968752	1208.86669921875	186.394027709961	267.5299377441407	1246.285400390625	168.9137268066407	478.2094421386721	1003.549682617188	321.6081848144532	311.2431945800782	1044.433837890625	251.1526641845704	299.5468139648439	1047.998291015625	152.1459655761719	468.9457092285159	999.8457641601567	42.02628707885744	311.943572998047	1093.252685546875	201.995819091797	304.2485961914064	1032.729736328125	228.7694702148439	296.9786987304689	1033.300659179688	177.910629272461	506.6995239257815	751.513610839844	371.7718811035157	464.8741455078127	708.8016357421877	354.0900878906251	501.755065917969	675.3485107421877	348.604949951172	674.5657348632815	387.6109619140627	305.9336242675782	656.0473632812502	329.5013732910157	310.2643432617189	701.8264160156252	313.7163696289064	298.6579589843751	743.9946899414065	27.40697288513185	219.2906799316407	898.5429687500005	80.88833618164065	284.6485290527345	928.213500976563	126.8458786010743	247.5697021484376	311.9388732910157	715.429870605469	22.89865684509278	274.8252258300782	686.5967407226565	41.4253387451172	313.0881652832032	638.2145996093752	41.2552947998047	181.3806610107422	371.2937927246095	77.76819610595706	143.6531066894532	342.6664428710939	93.77116394042972	180.9788665771485	292.9117736816407	90.95661926269534	42.41019439697267	69.70517730712893	183.3132934570313	251.5139007568361	29.63894844055177	152.3979644775391	198.0719757080079	20.08394622802735	109.2669906616212	
228	1.135	345.2242736816407	1496.710815429688	162.4247741699219	313.1917114257814	1415.318237304688	332.0614624023439	455.6810302734377	1402.062866210938	178.6602325439454	500.5131530761721	1208.066650390625	186.5965270996094	274.3878173828126	1245.388793945313	169.2865142822266	485.5249023437502	1002.696655273438	321.8969726562501	318.3821411132814	1043.66943359375	251.6402282714845	306.5471191406251	1047.16064453125	152.6317138671876	475.7632751464846	998.9338989257817	42.06618881225587	319.0037536621095	1092.4697265625	202.4568328857423	311.3633422851564	1031.953247070313	229.2650604248048	304.0259094238282	1032.49951171875	178.4129333496094	512.8977661132815	750.3557128906252	372.3938293457032	471.0111389160159	707.9278564453127	354.1105346679689	507.7736511230471	674.3638916015627	348.7566528320314	681.5859985351565	387.0212097167971	305.9640197753907	663.5927734375002	328.7217407226564	310.0775756835939	709.5293579101565	313.4038696289064	298.4888305664064	754.4533691406252	27.56015205383302	218.1605072021486	908.516235351563	82.32894134521487	283.8220214843751	937.7466430664067	128.7960510253907	246.8577270507814	317.2853393554689	715.426452636719	22.96399879455567	280.0825805664064	686.8008422851565	41.66308212280275	318.0204162597657	638.170349121094	41.18961715698244	184.7058868408204	372.0537719726564	77.66977691650393	146.7050476074219	343.7413024902345	93.60630798339847	183.6300506591797	293.6884765625001	90.81719970703128	42.978572845459	71.80841064453128	182.8819885253907	251.5502471923829	29.62795066833498	152.3689270019532	198.1307525634767	20.10590362548829	109.2782287597657	
229	1.14	351.9638671875001	1495.916381835938	162.7386779785157	320.1038818359376	1414.479614257813	332.4294738769532	462.5630798339846	1401.344116210938	178.9305572509766	507.5299987792971	1207.32080078125	186.8188018798829	281.3111877441407	1244.505004882813	169.6756286621094	492.8958740234377	1001.897827148438	322.1990661621095	325.5892944335939	1042.952270507813	252.1037139892579	313.6452636718751	1046.358032226563	153.0890808105469	482.6913757324221	998.0252075195317	42.12755584716798	326.1463317871095	1091.728637695313	202.8880004882814	318.5507202148439	1031.222045898438	229.7360229492189	311.1555480957032	1031.738403320313	178.8893737792969	519.2810058593752	749.3623657226565	373.0073242187501	477.3776550292971	707.1812133789065	354.1574707031251	514.0671386718752	673.5555419921877	348.9127197265626	688.3984375000002	386.3382568359377	305.9998474121095	670.7803955078127	327.8996887207032	309.8165283203126	716.8508300781252	312.9444580078126	298.3176574707032	763.9570922851565	27.53056526184083	216.9693298339845	917.511352539063	83.26670837402347	283.1753234863282	946.4580078125005	130.1622772216797	246.4094696044923	322.7562561035157	715.4226684570315	23.04489707946778	285.4604797363282	687.0040283203127	41.90359497070314	323.0837707519532	638.1269531250002	41.13698196411134	188.1427917480469	372.8367919921876	77.56233978271487	149.8552551269532	344.8553466796876	93.42204284667972	186.3697509765626	294.4998779296876	90.65710449218753	43.60379028320314	74.01414489746097	182.3967742919922	251.5944824218751	29.61859512329103	152.3379821777344	198.1994934082032	20.12274932861329	109.2770309448243	
230	1.145	358.7186279296876	1495.154418945313	163.0744934082032	327.0445861816407	1413.6630859375	332.819793701172	469.4736938476565	1400.67431640625	179.2222747802735	514.6126708984377	1206.632568359375	187.0610504150391	288.3013610839845	1243.63671875	170.0791625976563	500.3247375488284	1001.158264160157	322.5147705078126	332.8661499023439	1042.284912109375	252.5417480468751	320.8435668945314	1045.592651367188	153.5169982910157	489.7335205078127	997.1206665039067	42.21141433715822	333.3728027343751	1091.031860351563	203.2874603271486	325.8123779296876	1030.538696289063	230.1809692382814	318.3701171875001	1031.01953125	179.3384399414063	525.855407714844	748.5364990234377	373.6056213378907	483.9791564941409	706.5616455078127	354.2324829101564	520.6440429687502	672.922790527344	349.074432373047	695.0108032226565	385.557800292969	306.0352478027345	677.6192626953127	327.0287170410157	309.4828491210939	723.8002929687502	312.330535888672	298.1406555175782	772.5053100585942	27.30486869812013	215.7350463867189	925.5390014648442	83.67237091064456	282.7101440429689	954.363403320313	130.9094696044922	246.2260589599611	328.3601074218751	715.413269042969	23.1412696838379	290.9675598144532	687.2004394531252	42.14579010009767	328.2876586914064	638.0794677734377	41.09982681274415	191.6974639892579	373.6424560546876	77.44545745849612	153.1104431152344	346.008270263672	93.21723937988284	189.2041931152344	295.3457336425782	90.47753906250003	44.29148101806642	76.32448577880862	181.856430053711	251.6479492187501	29.61144828796388	152.3055877685547	198.2788238525392	20.13584327697755	109.2636489868165	
231	1.15	365.4888000488282	1494.427490234375	163.4318847656251	334.0132446289064	1412.87060546875	333.231414794922	476.4128417968752	1400.056274414063	179.5354461669922	521.761657714844	1206.005004882813	187.3232879638672	295.3592224121095	1242.786499023438	170.4951477050782	507.8139648437502	1000.48291015625	322.844207763672	340.2139587402345	1041.670043945313	252.9534606933595	328.1439819335939	1044.866455078125	153.9149169921876	496.8927307128909	996.2214965820317	42.3185272216797	340.6842346191407	1090.3818359375	203.6537933349611	333.1495361328126	1029.906005859375	230.5988769531251	325.6719055175782	1030.345092773438	179.7590637207032	532.6234130859377	747.8775024414065	374.1823120117189	490.8149414062502	706.0668945312502	354.3367004394532	527.5043945312502	672.4609985351565	349.2424316406251	701.4317016601565	384.6789550781252	306.0645751953126	684.1223144531252	326.1053161621095	309.080780029297	730.3909912109377	311.559539794922	297.9545898437501	780.1090698242192	26.87965774536134	214.4771270751954	932.6222534179692	83.52814483642581	282.4237365722657	961.4885253906255	131.0142517089844	246.3018188476564	334.1040344238282	715.3942871093752	23.25312042236329	296.6115722656251	687.3852539062502	42.38928604125978	333.6396789550782	638.0239868164065	41.08046722412111	195.3755340576173	374.4710083007814	77.31865692138675	156.4772033691407	347.2000122070314	92.99085235595706	192.1396026611329	296.2261657714845	90.27984619140628	45.04768371582033	78.74153137207034	181.2603607177735	251.7120361328126	29.60709381103517	152.2721405029297	198.3694610595704	20.14711380004884	109.238624572754	
232	1.155	372.2745666503907	1493.738159179688	163.8103790283204	341.0092163085939	1412.104248046875	333.6633300781251	483.3804321289065	1399.492431640625	179.8699951171876	528.976989746094	1205.441162109375	187.6053009033204	302.4852905273439	1241.957153320313	170.9214630126954	515.3660278320315	999.8764648437505	323.1871643066407	347.6337890625001	1041.110229492188	253.3384246826173	335.5479125976564	1044.18115234375	154.2827453613282	504.1712341308596	995.3291625976567	42.4493980407715	348.081268310547	1089.780883789063	203.9859466552736	340.563201904297	1029.326293945313	230.9891510009767	333.0628356933595	1029.717041015625	180.1505584716797	539.5833129882815	747.3815917968752	374.7314758300782	497.8782348632815	705.693298339844	354.4707641601564	534.6394653320315	672.1617431640627	349.4163513183595	707.6702270507815	383.7041320800782	306.0832824707032	690.306091308594	325.1288452148439	308.616912841797	736.639831542969	310.6341247558595	297.7575073242189	786.7916870117192	26.2620029449463	213.2153167724611	938.7968750000005	82.82817077636722	282.3085327148439	967.8690795898442	130.4658660888672	246.6244659423829	339.9935913085939	715.3629150390627	23.3806552886963	302.3988647460939	687.5550537109377	42.63452911376955	339.1453552246095	637.9578247070315	41.08094787597658	199.1820831298829	375.3233337402345	77.18145751953128	159.9618682861329	348.4308471679689	92.74209594726565	195.1819610595704	297.1417541503907	90.06536102294925	45.8788414001465	81.26737976074222	180.6088256835938	251.7880401611329	29.60608863830568	152.2380371093751	198.4721832275392	20.15903663635255	109.2028503417969	
233	1.16	379.0759887695314	1493.088623046875	164.2094879150391	348.0317382812501	1411.365966796875	334.1142883300782	490.3762512207034	1398.9853515625	180.2257385253907	536.2583007812502	1204.94384765625	187.9066314697266	309.6795959472657	1241.1513671875	171.3560028076172	522.9830322265627	999.343383789063	323.543182373047	355.1263122558595	1040.607666015625	253.6965332031251	343.0560607910157	1043.538330078125	154.6207427978516	511.5705566406252	994.445434570313	42.60432052612306	355.5640258789064	1089.23095703125	204.2831573486329	348.0538940429689	1028.802001953125	231.3514862060548	340.544403076172	1029.136840820313	180.5126190185547	546.7294921875002	747.042175292969	375.2479858398439	505.156188964844	705.435974121094	354.6349182128907	542.0320434570315	672.0137939453127	349.5950927734376	713.7354125976565	382.6392211914064	306.0884094238282	696.189880371094	324.1017456054689	308.1001586914064	742.5664672851565	309.5621948242189	297.5488891601564	792.5888671875005	25.46946716308595	211.9683380126954	944.111206054688	81.57857513427737	282.3523559570314	973.550903320313	129.2665557861329	247.1753540039064	346.0326538085939	715.3178710937502	23.52432441711426	308.3342590332032	687.707702636719	42.88274383544923	344.808074951172	637.8796997070315	41.10292434692384	203.1213684082032	376.2007751464845	77.03347015380862	163.5703277587891	349.7014465332032	92.47063446044925	198.3368072509767	298.0935668945314	89.83534240722659	46.79175567626955	83.90408325195315	179.9030761718751	251.8771209716798	29.60889625549318	152.2035217285157	198.5876312255861	20.17455863952637	109.1575469970704	
